<?xml version="1.0" encoding="UTF-8" standalone="no"?>
<!-- Created with Inkscape (http://www.inkscape.org/) -->

<svg
   xmlns:dc="http://purl.org/dc/elements/1.1/"
   xmlns:cc="http://creativecommons.org/ns#"
   xmlns:rdf="http://www.w3.org/1999/02/22-rdf-syntax-ns#"
   xmlns:svg="http://www.w3.org/2000/svg"
   xmlns="http://www.w3.org/2000/svg"
   xmlns:sodipodi="http://sodipodi.sourceforge.net/DTD/sodipodi-0.dtd"
   xmlns:inkscape="http://www.inkscape.org/namespaces/inkscape"
   width="500"
   height="200"
   viewBox="0 0 50 529.16668"
   version="1.1"
   id="svg8"
   inkscape:version="0.92.3 (2405546, 2018-03-11)"
   sodipodi:docname="DIVIDER 13.svg">
  <defs
     id="defs2" />
  <sodipodi:namedview
     id="base"
     pagecolor="#ffffff"
     bordercolor="#666666"
     borderopacity="1.0"
     inkscape:pageopacity="0.0"
     inkscape:pageshadow="2"
     inkscape:zoom="0.175"
     inkscape:cx="3842.9438"
     inkscape:cy="417.28195"
     inkscape:document-units="px"
     inkscape:current-layer="layer1"
     showgrid="false"
     inkscape:snap-global="false"
     units="px"
     inkscape:window-width="1920"
     inkscape:window-height="1057"
     inkscape:window-x="-8"
     inkscape:window-y="-8"
     inkscape:window-maximized="1"
     showguides="true"
     inkscape:guide-bbox="true" />
  <metadata
     id="metadata5">
    <rdf:RDF>
      <cc:Work
         rdf:about="">
        <dc:format>image/svg+xml</dc:format>
        <dc:type
           rdf:resource="http://purl.org/dc/dcmitype/StillImage" />
        <dc:title></dc:title>
      </cc:Work>
    </rdf:RDF>
  </metadata>
  <g
     inkscape:label="Layer 1"
     inkscape:groupmode="layer"
     id="layer1"
     transform="translate(0,232.16668)">
    <path
       style="opacity:1;fill:#0369a1;fill-opacity:1;stroke:none;stroke-width:0.30000001;stroke-linecap:round;stroke-linejoin:round;stroke-miterlimit:4;stroke-dasharray:none;stroke-dashoffset:254.8346405;stroke-opacity:1;paint-order:normal"
       d="m 294.86429,25.860581 c -0.84271,-0.04667 -1.77765,0.586367 -2.28182,1.625359 -0.314,0.64705 -0.67356,1.89004 -0.82934,3.020783 -0.15556,-1.130766 -0.51535,-2.373733 -0.82934,-3.020783 -0.62052,-1.278764 -1.89309,-1.942118 -2.84318,-1.481055 -0.95028,0.461053 -1.21826,1.872094 -0.59796,3.150812 0.26776,0.551499 0.85959,1.395454 1.51758,2.142298 -1.0307,-0.230354 -2.15387,-0.340352 -2.8066,-0.296545 -1.41807,0.09542 -2.50969,1.026692 -2.43891,2.080454 0.0701,1.05379 1.27762,1.831632 2.6957,1.736361 0.7176,-0.04802 1.97596,-0.353223 3.03513,-0.778585 -0.90471,0.696078 -1.80744,1.624923 -2.21368,2.218409 -0.65227,0.952992 -0.73753,2.077501 -0.27891,2.786099 l 0.002,-0.0016 c 0.10737,0.162975 0.24235,0.305197 0.40603,0.417042 0.8716,0.596525 2.22746,0.131094 3.03029,-1.041812 0.34006,-0.49693 0.77018,-1.406426 1.09097,-2.330995 0.32077,0.924569 0.74912,1.834065 1.08942,2.330995 0.8028,1.172906 2.15867,1.638337 3.03029,1.041812 0.16213,-0.111594 0.29975,-0.252909 0.40579,-0.415458 v -0.0016 c 0.45749,-0.708662 0.37468,-1.832043 -0.27739,-2.784514 -0.40623,-0.593488 -1.30897,-1.522331 -2.21369,-2.21841 1.05919,0.425363 2.31755,0.730559 3.03514,0.778586 1.41809,0.09527 2.62339,-0.682574 2.69418,-1.736361 0.0701,-1.053763 -1.01909,-1.985018 -2.43719,-2.080454 -0.53659,-0.03602 -1.3933,0.03953 -2.25331,0.191875 0.62052,-0.720106 1.1718,-1.508607 1.42706,-2.034473 0.62053,-1.27873 0.35408,-2.689726 -0.59619,-3.150813 -0.17749,-0.08646 -0.36702,-0.132628 -0.56137,-0.144284 z m -105.41508,0.8658 c -1.00856,0.01381 -1.87713,0.445378 -2.25641,1.227343 -0.11394,0.234623 -0.17528,0.482934 -0.19061,0.738942 v 0 c -0.0614,1.10947 0.77103,2.341098 2.13916,3.00493 0.85192,0.413395 2.48976,0.885744 3.97861,1.090971 -1.48906,0.205196 -3.12669,0.679108 -3.97861,1.092555 -1.68385,0.816966 -2.55592,2.49274 -1.94877,3.74387 0.60694,1.251164 2.46435,1.603499 4.14821,0.786513 1.00944,-0.489868 2.76912,-1.793185 3.88483,-3.028712 1.57125,-1.760662 1.6992,-3.490977 0,-5.196383 -1.11615,-1.232603 -2.8686,-2.53063 -3.87541,-3.019199 -0.63146,-0.306394 -1.28662,-0.449053 -1.89179,-0.44083 z m 204.63947,0 c -0.605,-0.0083 -1.2603,0.134469 -1.8917,0.44083 -1.007,0.488569 -2.7594,1.786596 -3.87563,3.019199 -1.70526,1.705406 -1.57731,3.435721 0,5.196383 1.11583,1.235527 2.87563,2.538844 3.88513,3.028712 1.6837,0.816986 3.541,0.464651 4.1482,-0.786513 0.6072,-1.25113 -0.2651,-2.926904 -1.9488,-3.74387 -0.8522,-0.413447 -2.4898,-0.887349 -3.9785,-1.092555 1.4887,-0.20522 3.1263,-0.677576 3.9785,-1.090971 1.3679,-0.663832 2.2006,-1.89546 2.139,-3.00493 v 0 c -0.022,-0.256009 -0.077,-0.504323 -0.1907,-0.738942 -0.3792,-0.781965 -1.2478,-1.213627 -2.2563,-1.227343 z M 205.73922,28.38504 a 1.3809823,1.3809823 0 0 0 -1.36046,1.401767 v 1.46837 h -3.54741 a 1.5344249,1.5344249 0 1 0 0,3.068358 h 3.54741 V 35.7919 a 1.3819505,1.3819505 0 1 0 2.76387,0 v -1.468365 h 73.77043 a 1.5344249,1.5344249 0 1 0 0,-3.068358 h -73.77043 v -1.46837 a 1.3809823,1.3809823 0 0 0 -1.40341,-1.401767 z m 172.01821,0 a 1.3809823,1.3809823 0 0 0 -1.36051,1.401767 v 1.46837 h -73.77064 a 1.5344249,1.5344249 0 1 0 0,3.068358 h 73.77064 V 35.7919 a 1.3819505,1.3819505 0 1 0 2.76386,0 v -1.468365 h 3.54724 a 1.5344249,1.5344249 0 1 0 0,-3.068358 h -3.54724 v -1.46837 a 1.3809823,1.3809823 0 0 0 -1.40335,-1.401767 z m -193.41109,2.004342 a 2.4003314,2.4003314 0 0 0 -2.40081,2.399185 2.4003314,2.4003314 0 0 0 2.40081,2.400769 2.4003314,2.4003314 0 0 0 2.40079,-2.400769 2.4003314,2.4003314 0 0 0 -2.40079,-2.399185 z m 214.84514,0 a 2.4003314,2.4003314 0 0 0 -2.4008,2.399185 2.4003314,2.4003314 0 0 0 2.4008,2.400769 2.4003314,2.4003314 0 0 0 2.4009,-2.400769 2.4003314,2.4003314 0 0 0 -2.4009,-2.399185 z"
       id="path1278"
       inkscape:connector-curvature="0" />
  </g>
</svg>
